<svg id="Layer_11" viewBox="0 0 24 24" xmlns="http://www.w3.org/2000/svg" data-name="Layer 11"><path d="m16.2559 18.9028-.9561-.957a1.8826 1.8826 0 0 0 -2.6 0 1.3494 1.3494 0 0 1 -1.6787.1792 17.5213 17.5213 0 0 1 -2.8447-2.3018 17.4577 17.4577 0 0 1 -2.3014-2.8447 1.3522 1.3522 0 0 1 .1787-1.6792 1.8389 1.8389 0 0 0 0-2.5986l-.956-.957a1.843 1.843 0 0 0 -2.3194-.2295l-.7715.5141a2.8211 2.8211 0 0 0 -1.2568 2.3599 2.7634 2.7634 0 0 0 .3037 1.2729 26.3643 26.3643 0 0 0 4.77 6.5157 26.3936 26.3936 0 0 0 6.5 4.7617 2.8368 2.8368 0 0 0 3.6485-.9453l.5146-.7715a1.8415 1.8415 0 0 0 -.2309-2.3189z" fill="#a5fa9b"/><path d="m14.53 22.94a1.5385 1.5385 0 0 0 .19.08 2.7094 2.7094 0 0 1 -1.1.23 2.9268 2.9268 0 0 1 -1.3-.31 26.6648 26.6648 0 0 1 -6.5-4.76 26.62 26.62 0 0 1 -4.77-6.52 2.7327 2.7327 0 0 1 -.3-1.27 2.8082 2.8082 0 0 1 1.26-2.36l.77-.52a1.8514 1.8514 0 0 1 2.11.06l-.68.46a2.8233 2.8233 0 0 0 -1.25 2.36 2.7327 2.7327 0 0 0 .3 1.27 26.3639 26.3639 0 0 0 4.77 6.52 26.4754 26.4754 0 0 0 6.5 4.76z" fill="#97e68e"/><path d="m16 .75a7.24 7.24 0 0 0 -6.3457 10.7437.7179.7179 0 0 1 .0957.3525v1.1538a1.2511 1.2511 0 0 0 1.25 1.25h1.1543a.73.73 0 0 1 .3525.0952 7.2471 7.2471 0 1 0 3.4932-13.5952z" fill="#edf2ff"/><path d="m22.5 7.67v3.16a1.8353 1.8353 0 0 1 -.06.47 6.3426 6.3426 0 0 1 -.91 1.38l-.01.01a2.22 2.22 0 0 1 -.66.31 13.383 13.383 0 0 1 -3.61.5 13.1669 13.1669 0 0 1 -3.58-.5 2.2745 2.2745 0 0 1 -1.67-2.17v-3.16a2.25 2.25 0 0 1 1.64-2.17 13.302 13.302 0 0 1 7.19-.01 2.2863 2.2863 0 0 1 1.67 2.18z" fill="#bed2e8"/><path d="m14.76 14.35a7.0405 7.0405 0 0 0 2.35.8 5.8026 5.8026 0 0 1 -1.11.1 7.2557 7.2557 0 0 1 -3.49-.9.7016.7016 0 0 0 -.36-.1h-1.15a1.25 1.25 0 0 1 -1.25-1.25v-1.15a.7016.7016 0 0 0 -.1-.36 7.2432 7.2432 0 0 1 6.35-10.74 6.0132 6.0132 0 0 1 1.13.1 7.2307 7.2307 0 0 0 -5.23 10.64.7016.7016 0 0 1 .1.36v1.15a1.25 1.25 0 0 0 1.25 1.25h1.15a.7016.7016 0 0 1 .36.1z" fill="#bed2e8"/><path d="m19.5791 4.2453a13.313 13.313 0 0 0 -7.1914.0092 2.2624 2.2624 0 0 0 -1.6377 2.168v3.16a2.28 2.28 0 0 0 1.6709 2.1775 13.257 13.257 0 0 0 3.5791.4926 13.2733 13.2733 0 0 0 3.6123-.502 2.2622 2.2622 0 0 0 1.6377-2.1679v-3.16a2.2794 2.2794 0 0 0 -1.6709-2.1774z" fill="#f2c894"/><path d="m16.84 12.22q-.42.03-.84.03a13.1564 13.1564 0 0 1 -3.58-.49 2.2863 2.2863 0 0 1 -1.67-2.18v-3.16a2.2681 2.2681 0 0 1 1.64-2.17 13 13 0 0 1 4.43-.46 12.9636 12.9636 0 0 0 -2.68.46 2.2681 2.2681 0 0 0 -1.64 2.17v3.16a2.2863 2.2863 0 0 0 1.67 2.18 12.8706 12.8706 0 0 0 2.67.46z" fill="#d9b385"/><path d="m20 8.2526h-2a.25.25 0 0 1 0-.5h2a.25.25 0 0 1 0 .5z" fill="#807a6e"/><path d="m20 9.2526h-2a.25.25 0 0 1 0-.5h2a.25.25 0 0 1 0 .5z" fill="#807a6e"/><path d="m18.25 3.9626v1.33a1.2873 1.2873 0 0 1 -.62 1.11 1.3087 1.3087 0 0 1 -.68.2 1.38 1.38 0 0 1 -.59-.14.8267.8267 0 0 0 -.72 0 1.3059 1.3059 0 0 1 -1.27-.06 1.2873 1.2873 0 0 1 -.62-1.11v-1.34a12.8353 12.8353 0 0 1 4.5.01z" fill="#f5deb2"/><path d="m13.7483 3.9428a13.124 13.124 0 0 1 3.0717-.1528 12.9636 12.9636 0 0 0 -2.68.46 2.2813 2.2813 0 0 0 -.39.1528z" fill="#d9c49d"/></svg>