<svg id="Layer_11" viewBox="0 0 24 24" xmlns="http://www.w3.org/2000/svg" data-name="Layer 11"><path d="m13.5791 12.2442a13.314 13.314 0 0 0 -7.1914.0093 2.2624 2.2624 0 0 0 -1.6377 2.168v3.16a2.28 2.28 0 0 0 1.6709 2.1772 13.2469 13.2469 0 0 0 7.1914-.0093 2.2622 2.2622 0 0 0 1.6377-2.1677v-3.16a2.28 2.28 0 0 0 -1.6709-2.1775z" fill="#f2c894"/><path d="m10.89 20.22c-.29.02-.59.03-.89.03a13.1564 13.1564 0 0 1 -3.58-.49 2.2167 2.2167 0 0 1 -.93-.53v-1.73a1.1294 1.1294 0 0 0 -.15-.57l-.18-.31.36-.06a4.7355 4.7355 0 0 1 1.25-.02 5.0136 5.0136 0 0 1 1.05.22 5.2075 5.2075 0 0 1 2.79 2.38 1.2869 1.2869 0 0 1 .15.84c0 .02-.01.03-.01.04l-.05.19a1.21 1.21 0 0 0 .19.01z" fill="#d9b385"/><path d="m6.42 19.7591a2.2863 2.2863 0 0 1 -1.67-2.18v-3.16a2.2681 2.2681 0 0 1 1.64-2.17 13 13 0 0 1 4.43-.46 12.9636 12.9636 0 0 0 -2.68.46 2.2681 2.2681 0 0 0 -1.64 2.17v3.16a2.2863 2.2863 0 0 0 1.67 2.18z" fill="#d9b385"/><path d="m14 16.2516h-2a.25.25 0 0 1 0-.5h2a.25.25 0 0 1 0 .5z" fill="#807a6e"/><path d="m14 17.2516h-2a.25.25 0 0 1 0-.5h2a.25.25 0 0 1 0 .5z" fill="#807a6e"/><path d="m12.25 11.9616v1.33a1.2875 1.2875 0 0 1 -.62 1.11 1.3085 1.3085 0 0 1 -.68.2 1.38 1.38 0 0 1 -.59-.14.8267.8267 0 0 0 -.72 0 1.3062 1.3062 0 0 1 -1.27-.06 1.2875 1.2875 0 0 1 -.62-1.11v-1.34a12.8353 12.8353 0 0 1 4.5.01z" fill="#f5deb2"/><path d="m7.7483 11.9418a13.124 13.124 0 0 1 3.0717-.1527 12.9636 12.9636 0 0 0 -2.68.46 2.2813 2.2813 0 0 0 -.39.1528z" fill="#d9c49d"/><path d="m8.96 20.21c.35.03.69.04 1.04.04a13.2079 13.2079 0 0 0 3.13-.38 1.1669 1.1669 0 0 1 .12.52 1.2546 1.2546 0 0 1 -.68 1.11l-2.72 1.35a3.7067 3.7067 0 0 1 -1.68.4 3.833 3.833 0 0 1 -2.2583-.749l-2.6529-1.9981.1875-.2029a1.1546 1.1546 0 0 0 .3037-.8v-2a1.1137 1.1137 0 0 0 -.147-.5659l-.1811-.3164.36-.0547a4.7712 4.7712 0 0 1 1.2451-.0215 4.4717 4.4717 0 0 1 1.0538.2222 5.1474 5.1474 0 0 1 2.7856 2.3716 1.2687 1.2687 0 0 1 .1494.8476l-.0054.0381z" fill="#f8d5b9"/><path d="m5.4988 17.5034v2a1.7472 1.7472 0 0 1 -1.33 1.69l-.91-.69.19-.2a1.1527 1.1527 0 0 0 .3-.8v-2a1.1294 1.1294 0 0 0 -.15-.57l-.18-.32.37-.05a4.8945 4.8945 0 0 1 1.43 0 1.7017 1.7017 0 0 1 .28.94z" fill="#f1b695"/><path d="m7.72 21.09a1.2485 1.2485 0 0 1 -.5249-.103 6.2084 6.2084 0 0 1 -1.3486-.79 6.1456 6.1456 0 0 1 -1.042-1.041.25.25 0 1 1 .3906-.3125 5.6644 5.6644 0 0 0 .9575.9584 5.7445 5.7445 0 0 0 1.2474.7289.8741.8741 0 0 0 .8936-.1778.4917.4917 0 0 0 .0722-.082.25.25 0 1 1 .4287.2578.9252.9252 0 0 1 -.1474.1777 1.3018 1.3018 0 0 1 -.9271.3835z" fill="#f1b695"/><path d="m17.0576 6.6069a4.8259 4.8259 0 0 1 -1.0527-.3789 4.3785 4.3785 0 0 0 -2.0049-.478.75.75 0 0 1 0-1.5h3.165l-.2192-.376a2.235 2.235 0 0 0 -1.9458-1.124h-8a2.2525 2.2525 0 0 0 -2.25 2.25v3a2.2525 2.2525 0 0 0 2.25 2.25h8a2.2525 2.2525 0 0 0 2.25-2.25v-1.3477z" fill="#a5fa9b"/><path d="m9.75 10.25h-2.75a2.2534 2.2534 0 0 1 -2.25-2.25v-3a2.2534 2.2534 0 0 1 2.25-2.25h2.75a2.2534 2.2534 0 0 0 -2.25 2.25v3a2.2534 2.2534 0 0 0 2.25 2.25z" fill="#97e68e"/><g fill="#86cd7e"><path d="m6 5.25a.25.25 0 0 1 0-.5.7508.7508 0 0 0 .75-.75.25.25 0 0 1 .5 0 1.2511 1.2511 0 0 1 -1.25 1.25z"/><path d="m7 9.25a.25.25 0 0 1 -.25-.25.7508.7508 0 0 0 -.75-.75.25.25 0 0 1 0-.5 1.2511 1.2511 0 0 1 1.25 1.25.25.25 0 0 1 -.25.25z"/><path d="m15 9.25a.25.25 0 0 1 -.25-.25 1.2511 1.2511 0 0 1 1.25-1.25.25.25 0 0 1 0 .5.7508.7508 0 0 0 -.75.75.25.25 0 0 1 -.25.25z"/><circle cx="11" cy="6.5" r="1.75"/></g><path d="m16.2231 3.75h-2.2231a1.25 1.25 0 0 0 0 2.5 3.8772 3.8772 0 0 1 1.7783.4238 5.4318 5.4318 0 0 0 1.1612.419 5.3565 5.3565 0 0 0 1.3005.1572 4.9125 4.9125 0 0 0 1.5586-.2529l1.0581-.3526-.2629-.2845a1.2649 1.2649 0 0 1 -.3438-.86v-2a1.1661 1.1661 0 0 1 .09-.45l.12-.3-.31-.05a3.8615 3.8615 0 0 1 -2.19-1.1 2.9117 2.9117 0 0 0 -2.07-.85 2.8425 2.8425 0 0 0 -1.75.59l-1.88 1.41h2.74a2.2255 2.2255 0 0 1 1.84.96z" fill="#f8d5b9"/><path d="m18.78 7.22a4.8863 4.8863 0 0 1 -.54.03 5.0886 5.0886 0 0 1 -1.3-.16 5.01 5.01 0 0 1 -1.16-.42 3.9861 3.9861 0 0 0 -1.78-.42 1.25 1.25 0 0 1 0-2.5h1.14a1.25 1.25 0 0 0 0 2.5 3.9861 3.9861 0 0 1 1.78.42 5.1825 5.1825 0 0 0 1.16.42 5.4 5.4 0 0 0 .7.13z" fill="#f1b695"/><path d="m13.4 2.75h-1.14l1.88-1.41a2.877 2.877 0 0 1 2.33-.53 2.8374 2.8374 0 0 0 -1.19.53z" fill="#f1b695"/><path d="m22 1.75h-.5a1.7522 1.7522 0 0 0 -1.75 1.75v2a1.7522 1.7522 0 0 0 1.75 1.75h.5a1.2511 1.2511 0 0 0 1.25-1.25v-3a1.2511 1.2511 0 0 0 -1.25-1.25z" fill="#807a6e"/><path d="m22.34 7.19a.9737.9737 0 0 1 -.34.06h-.5a1.7584 1.7584 0 0 1 -1.75-1.75v-2a1.7584 1.7584 0 0 1 1.75-1.75h.5a.9737.9737 0 0 1 .34.06 1.7367 1.7367 0 0 0 -1.34 1.69v2a1.7367 1.7367 0 0 0 1.34 1.69z" fill="#524d46"/><path d="m2.5 15.75h-.5a1.2511 1.2511 0 0 0 -1.25 1.25v3a1.2511 1.2511 0 0 0 1.25 1.25h.5a1.7522 1.7522 0 0 0 1.75-1.75v-2a1.7522 1.7522 0 0 0 -1.75-1.75z" fill="#807a6e"/><path d="m2.91 21.19a1.4027 1.4027 0 0 1 -.41.06h-.5a1.25 1.25 0 0 1 -1.25-1.25v-3a1.25 1.25 0 0 1 1.25-1.25h.5a1.4027 1.4027 0 0 1 .41.06 1.2244 1.2244 0 0 0 -.91 1.19v3a1.2244 1.2244 0 0 0 .91 1.19z" fill="#524d46"/></svg>