<svg id="Layer_11" viewBox="0 0 24 24" xmlns="http://www.w3.org/2000/svg" data-name="Layer 11"><path d="m1.75 12.58h13.5v2.67h-13.5z" fill="#807a6e"/><path d="m2.09 14.75a1.3382 1.3382 0 0 0 -.23 2.6567 61.4256 61.4256 0 0 0 10.14.8433c1.2881 0 2.6387-.0439 4.0156-.13l.2344-.0146v-3.3554z" fill="#6593a6"/><circle cx="5" cy="17" fill="#807a6e" r="2.25"/><path d="m5.87 19.07a2.1177 2.1177 0 0 1 -.87.18 2.25 2.25 0 0 1 0-4.5 2.1177 2.1177 0 0 1 .87.18 2.2488 2.2488 0 0 0 0 4.14z" fill="#524d46"/><circle cx="5" cy="17" fill="#edf2ff" r="1.25"/><path d="m4.5 17a2.229 2.229 0 0 0 .37 1.23 1.2354 1.2354 0 0 1 0-2.46 2.229 2.229 0 0 0 -.37 1.23z" fill="#bed2e8"/><circle cx="9" cy="17" fill="#807a6e" r="2.25"/><path d="m9.87 19.07a2.1177 2.1177 0 0 1 -.87.18 2.25 2.25 0 0 1 0-4.5 2.1177 2.1177 0 0 1 .87.18 2.2488 2.2488 0 0 0 0 4.14z" fill="#524d46"/><circle cx="9" cy="17" fill="#edf2ff" r="1.25"/><path d="m8.5 17a2.229 2.229 0 0 0 .37 1.23 1.2354 1.2354 0 0 1 0-2.46 2.229 2.229 0 0 0 -.37 1.23z" fill="#bed2e8"/><path d="m23.25 13v2.31a2.25 2.25 0 0 1 -1.93 2.23c-1.74.27-3.47.46-5.3.58h-.02v-10.37h2a4.2154 4.2154 0 0 1 3.4 1.7l1.2 1.6a3.1991 3.1991 0 0 1 .65 1.95z" fill="#edf2ff"/><circle cx="20" cy="17" fill="#807a6e" r="2.25"/><path d="m20.87 19.07a2.1177 2.1177 0 0 1 -.87.18 2.25 2.25 0 0 1 0-4.5 2.1177 2.1177 0 0 1 .87.18 2.2488 2.2488 0 0 0 0 4.14z" fill="#524d46"/><path d="m18 14.25h-1a.25.25 0 0 1 0-.5h1a.25.25 0 0 1 0 .5z" fill="#807a6e"/><path d="m13 3.75h-9a3.2538 3.2538 0 0 0 -3.25 3.25v3.5981a3.245 3.245 0 0 0 2.6738 3.2019 28.9632 28.9632 0 0 0 5.0762.45 28.9972 28.9972 0 0 0 5.0762-.45 3.2448 3.2448 0 0 0 2.6738-3.2014v-3.5986a3.2538 3.2538 0 0 0 -3.25-3.25z" fill="#f2c894"/><path d="m9.87 14.21c-.45.03-.91.04-1.37.04a28.8137 28.8137 0 0 1 -5.08-.45 3.2412 3.2412 0 0 1 -2.67-3.2v-3.6a3.2563 3.2563 0 0 1 3.25-3.25h2.75a3.2563 3.2563 0 0 0 -3.25 3.25v3.6a3.2412 3.2412 0 0 0 2.67 3.2 27.0193 27.0193 0 0 0 3.7.41z" fill="#d9b385"/><path d="m14 10.25h-2a.25.25 0 0 1 0-.5h2a.25.25 0 0 1 0 .5z" fill="#807a6e"/><path d="m14 11.25h-2a.25.25 0 0 1 0-.5h2a.25.25 0 0 1 0 .5z" fill="#807a6e"/><path d="m10.75 3.75v1.54a1.2873 1.2873 0 0 1 -.62 1.11 1.3087 1.3087 0 0 1 -.68.2 1.38 1.38 0 0 1 -.59-.14.8267.8267 0 0 0 -.72 0 1.3059 1.3059 0 0 1 -1.27-.06 1.2873 1.2873 0 0 1 -.62-1.11v-1.54z" fill="#f5deb2"/><circle cx="20" cy="17" fill="#edf2ff" r="1.25"/><path d="m19.5 17a2.229 2.229 0 0 0 .37 1.23 1.2354 1.2354 0 0 1 0-2.46 2.229 2.229 0 0 0 -.37 1.23z" fill="#bed2e8"/><path d="m23.0664 11.9189a3.313 3.313 0 0 0 -.4658-.8686l-.9756-1.3h-1.625a1.25 1.25 0 0 0 0 2.5h3.1807z" fill="#91d7f2"/></svg>