<svg id="Layer_11" viewBox="0 0 24 24" xmlns="http://www.w3.org/2000/svg" data-name="Layer 11"><path d="m20.0254 11.5845a4.17 4.17 0 0 0 -.9463-1.9683.2551.2551 0 0 0 -.0952-.0683l-6.89-2.78a.2513.2513 0 0 0 -.1866 0l-6.9 2.75a.2573.2573 0 0 0 -.0967.0693 4.113 4.113 0 0 0 -.9155 1.8843 12.8418 12.8418 0 0 0 -.2451 2.5285 13.3059 13.3059 0 0 0 .2344 2.4976 4.1828 4.1828 0 0 0 3.3691 3.3178l.4873.0918a3.6793 3.6793 0 0 1 2.36 1.4444 2.2508 2.2508 0 0 0 3.5991-.001 3.7048 3.7048 0 0 1 2.3315-1.4424c.1607-.02.3125-.05.4747-.0825a4.1941 4.1941 0 0 0 3.3989-3.2969 12.8418 12.8418 0 0 0 .245-2.5288 13.227 13.227 0 0 0 -.2246-2.4155z" fill="#edf2ff"/><path d="m12 9a3.2478 3.2478 0 0 1 -6.48.32l5.8-2.31a3.2136 3.2136 0 0 1 .68 1.99z" fill="#bed2e8"/><path d="m19.65 10.48a3.2541 3.2541 0 0 1 -6.15-1.48 3.1831 3.1831 0 0 1 .37-1.51l5.11 2.06a.2286.2286 0 0 1 .1.07 4.1435 4.1435 0 0 1 .57.86z" fill="#bed2e8"/><path d="m13.38 21.78a2.2544 2.2544 0 0 1 -3.18-.43 3.657 3.657 0 0 0 -2.36-1.44l-.49-.09a4.2138 4.2138 0 0 1 -3.37-3.32 13.7566 13.7566 0 0 1 -.23-2.5 12.4776 12.4776 0 0 1 .25-2.53 4.0339 4.0339 0 0 1 .91-1.88.2286.2286 0 0 1 .1-.07l6.9-2.75a.1912.1912 0 0 1 .18 0l1.28.52-5.61 2.23a.2286.2286 0 0 0 -.1.07 4.0339 4.0339 0 0 0 -.91 1.88 12.4776 12.4776 0 0 0 -.25 2.53 13.7566 13.7566 0 0 0 .23 2.5 4.2138 4.2138 0 0 0 3.37 3.32l.49.09a3.657 3.657 0 0 1 2.36 1.44 2.5 2.5 0 0 0 .43.43z" fill="#bed2e8"/><circle cx="8" cy="9" fill="#fa8f82" r="3.25"/><path d="m7.91 5.76a3.24 3.24 0 0 1 -3.07 2.48 3.24 3.24 0 0 1 3.07-2.48z" fill="#e68477"/><path d="m8.63 12.18a2.7044 2.7044 0 0 1 -.63.07 3.25 3.25 0 0 1 0-6.5 2.7044 2.7044 0 0 1 .63.07 3.2375 3.2375 0 0 0 0 6.36z" fill="#e68477"/><circle cx="16" cy="9" fill="#fa8f82" r="3.25"/><path d="m16.63 12.18a2.7044 2.7044 0 0 1 -.63.07 3.25 3.25 0 0 1 0-6.5 2.7044 2.7044 0 0 1 .63.07 3.2375 3.2375 0 0 0 0 6.36z" fill="#e68477"/><path d="m15.91 5.76a3.24 3.24 0 0 1 -3.07 2.48 3.24 3.24 0 0 1 3.07-2.48z" fill="#e68477"/><circle cx="4" cy="5" fill="#fa8f82" r="3.25"/><path d="m4.63 8.18a2.7044 2.7044 0 0 1 -.63.07 3.25 3.25 0 0 1 0-6.5 2.7044 2.7044 0 0 1 .63.07 3.2375 3.2375 0 0 0 0 6.36z" fill="#e68477"/><circle cx="12" cy="5" fill="#fa8f82" r="3.25"/><circle cx="20" cy="5" fill="#fa8f82" r="3.25"/><path d="m20.63 8.18a2.7044 2.7044 0 0 1 -.63.07 3.25 3.25 0 0 1 0-6.5 2.7044 2.7044 0 0 1 .63.07 3.2375 3.2375 0 0 0 0 6.36z" fill="#e68477"/><path d="m5.3145 4.0591a.9387.9387 0 0 1 -.8257-.6c-.1324-.4069-.3388-.4928-.4888-.4928s-.3564.0859-.4888.4932a.9387.9387 0 0 1 -.8257.6c-.4282 0-.5732.17-.62.3125s-.0288.3657.3179.6172a.94.94 0 0 1 .3149.9707c-.1323.4072-.0156.5976.106.6855.1225.09.3393.14.685-.1113a.9383.9383 0 0 1 1.0206 0 .7983.7983 0 0 0 .457.1841.3805.3805 0 0 0 .228-.0728c.1216-.0879.2383-.2783.106-.6855a.94.94 0 0 1 .3149-.9707c.3467-.2515.3643-.4746.3179-.6172s-.191-.3129-.6192-.3129z" fill="#f0e486"/><path d="m4.48 3.42a.0758.0758 0 0 0 -.02.04.9354.9354 0 0 1 -.82.6c-.43 0-.57.17-.62.31s-.03.37.32.62a.9361.9361 0 0 1 .31.97.75.75 0 0 0 -.02.51.2513.2513 0 0 0 -.14.06c-.35.26-.56.2-.69.12-.12-.09-.23-.28-.1-.69a.9413.9413 0 0 0 -.32-.97c-.34-.25-.36-.48-.31-.62.04-.14.19-.31.62-.31a.9354.9354 0 0 0 .82-.6c.13-.41.34-.49.49-.49.14 0 .35.07.48.45z" fill="#d9ce79"/><g fill="#f0e486"><path d="m17.3145 8.0591a.9387.9387 0 0 1 -.8257-.6c-.1324-.4073-.3389-.4932-.4888-.4932s-.3564.0859-.4888.4932a.9387.9387 0 0 1 -.8257.6c-.4282 0-.5732.17-.62.3125s-.0288.3657.3179.6172a.94.94 0 0 1 .3149.9707c-.1323.4072-.0156.5976.106.6855.1216.09.34.14.685-.1113a.9383.9383 0 0 1 1.0206 0 .7983.7983 0 0 0 .457.1841.3805.3805 0 0 0 .228-.0728c.1216-.0879.2383-.2783.106-.6855a.94.94 0 0 1 .3149-.9707c.3467-.2515.3643-.4746.3179-.6172s-.191-.3125-.6192-.3125z"/><path d="m9.3145 8.0591a.9387.9387 0 0 1 -.8257-.6c-.1324-.4069-.3388-.4928-.4888-.4928s-.3564.0859-.4888.4932a.9387.9387 0 0 1 -.8257.6c-.4282 0-.5732.17-.62.3125s-.0288.3657.3179.6172a.94.94 0 0 1 .3149.9707c-.1323.4072-.0156.5976.106.6855.1221.09.3393.14.685-.1113a.9383.9383 0 0 1 1.0206 0 .7983.7983 0 0 0 .457.1841.3805.3805 0 0 0 .228-.0728c.1216-.0879.2383-.2783.106-.6855a.94.94 0 0 1 .3149-.9707c.3467-.2515.3643-.4746.3179-.6172s-.191-.3129-.6192-.3129z"/><path d="m13.3145 4.0591a.9387.9387 0 0 1 -.8257-.6c-.1324-.4073-.3389-.4932-.4888-.4932s-.3564.0859-.4888.4932a.9387.9387 0 0 1 -.8257.6c-.4282 0-.5732.17-.62.3125s-.0288.3657.3179.6172a.94.94 0 0 1 .3149.9707c-.1323.4072-.0156.5976.106.6855.1221.09.34.14.685-.1113a.9383.9383 0 0 1 1.0206 0 .7983.7983 0 0 0 .457.1841.3805.3805 0 0 0 .228-.0728c.1216-.0879.2383-.2783.106-.6855a.94.94 0 0 1 .3149-.9707c.3467-.2515.3643-.4746.3179-.6172s-.191-.3125-.6192-.3125z"/><path d="m21.9341 4.3716c-.0464-.1426-.1914-.3125-.62-.3125a.9387.9387 0 0 1 -.8257-.6c-.1324-.4073-.3389-.4932-.4888-.4932s-.3564.0859-.4888.4932a.9387.9387 0 0 1 -.8257.6c-.4282 0-.5732.17-.62.3125s-.0288.3657.3179.6172a.94.94 0 0 1 .3149.9707c-.1323.4072-.0156.5976.106.6855.1225.09.34.14.685-.1113a.9383.9383 0 0 1 1.0206 0 .7983.7983 0 0 0 .457.1841.3805.3805 0 0 0 .228-.0728c.1216-.0879.2383-.2783.106-.6855a.94.94 0 0 1 .3149-.9707c.3475-.2515.3651-.4746.3187-.6172z"/></g><path d="m16 14.25h-8a.25.25 0 0 1 0-.5h8a.25.25 0 0 1 0 .5z" fill="#807a6e"/><path d="m16 16.25h-8a.25.25 0 0 1 0-.5h8a.25.25 0 0 1 0 .5z" fill="#807a6e"/><path d="m12 18.25h-4a.25.25 0 0 1 0-.5h4a.25.25 0 0 1 0 .5z" fill="#807a6e"/><path d="m12.4777 3.4163a.0761.0761 0 0 0 -.02.04.9353.9353 0 0 1 -.82.6c-.43 0-.57.17-.62.31s-.03.37.32.62a.9362.9362 0 0 1 .31.97.75.75 0 0 0 -.02.51.2507.2507 0 0 0 -.14.06c-.35.26-.56.2-.69.12-.12-.09-.23-.28-.1-.69a.9413.9413 0 0 0 -.32-.97c-.34-.25-.36-.48-.31-.62.04-.14.19-.31.62-.31a.9353.9353 0 0 0 .82-.6c.13-.41.34-.49.49-.49.14 0 .35.07.48.45z" fill="#d9ce79"/><path d="m20.4777 3.4163a.0761.0761 0 0 0 -.02.04.9353.9353 0 0 1 -.82.6c-.43 0-.57.17-.62.31s-.03.37.32.62a.9362.9362 0 0 1 .31.97.75.75 0 0 0 -.02.51.2507.2507 0 0 0 -.14.06c-.35.26-.56.2-.69.12-.12-.09-.23-.28-.1-.69a.9413.9413 0 0 0 -.32-.97c-.34-.25-.36-.48-.31-.62.04-.14.19-.31.62-.31a.9353.9353 0 0 0 .82-.6c.13-.41.34-.49.49-.49.14 0 .35.07.48.45z" fill="#d9ce79"/><path d="m8.4777 7.4163a.0761.0761 0 0 0 -.02.04.9353.9353 0 0 1 -.82.6c-.43 0-.57.17-.62.31s-.03.37.32.62a.9362.9362 0 0 1 .31.97.75.75 0 0 0 -.02.51.2507.2507 0 0 0 -.14.06c-.35.26-.56.2-.69.12-.12-.09-.23-.28-.1-.69a.9413.9413 0 0 0 -.32-.97c-.34-.25-.36-.48-.31-.62.04-.14.19-.31.62-.31a.9353.9353 0 0 0 .82-.6c.13-.41.34-.49.49-.49.14 0 .35.07.48.45z" fill="#d9ce79"/><path d="m16.4777 7.4163a.0761.0761 0 0 0 -.02.04.9353.9353 0 0 1 -.82.6c-.43 0-.57.17-.62.31s-.03.37.32.62a.9362.9362 0 0 1 .31.97.75.75 0 0 0 -.02.51.2507.2507 0 0 0 -.14.06c-.35.26-.56.2-.69.12-.12-.09-.23-.28-.1-.69a.9413.9413 0 0 0 -.32-.97c-.34-.25-.36-.48-.31-.62.04-.14.19-.31.62-.31a.9353.9353 0 0 0 .82-.6c.13-.41.34-.49.49-.49.14 0 .35.07.48.45z" fill="#d9ce79"/><path d="m12.63 8.18a2.7044 2.7044 0 0 1 -.63.07 3.25 3.25 0 0 1 0-6.5 2.7044 2.7044 0 0 1 .63.07 3.2375 3.2375 0 0 0 0 6.36z" fill="#e68477"/></svg>