<svg id="Layer_11" viewBox="0 0 24 24" xmlns="http://www.w3.org/2000/svg" data-name="Layer 11"><path d="m17 .75a1.2511 1.2511 0 0 0 -1.25 1.25v.25h2.5v-.25a1.2511 1.2511 0 0 0 -1.25-1.25z" fill="#807a6e"/><path d="m17.38.82a1.218 1.218 0 0 0 -.88 1.18v.25h-.75v-.25a1.25 1.25 0 0 1 1.25-1.25.9857.9857 0 0 1 .38.07z" fill="#524d46"/><path d="m22.52 3.9707a2.2511 2.2511 0 0 0 -1.4966-1.5952 13.3044 13.3044 0 0 0 -8.0537.0024 2.2507 2.2507 0 0 0 -1.4997 1.6348 25.2473 25.2473 0 0 0 .01 12.0166 2.2511 2.2511 0 0 0 1.4966 1.5952 13.2506 13.2506 0 0 0 8.0537-.0024 2.2508 2.2508 0 0 0 1.499-1.6343v-.0005a25.2745 25.2745 0 0 0 .7207-5.9873 25.2773 25.2773 0 0 0 -.73-6.0293z" fill="#edf2ff"/><path d="m14.23 17.62a12.6568 12.6568 0 0 0 3.4.61c-.21.01-.42.02-.63.02a13.0424 13.0424 0 0 1 -4.02-.63 2.2275 2.2275 0 0 1 -1.5-1.59 25.5137 25.5137 0 0 1 -.73-6.03 25.2343 25.2343 0 0 1 .72-5.99 2.2488 2.2488 0 0 1 1.5-1.63 13.1817 13.1817 0 0 1 4.66-.61 12.8 12.8 0 0 0 -3.41.61 2.2488 2.2488 0 0 0 -1.5 1.63 25.2343 25.2343 0 0 0 -.72 5.99 25.5137 25.5137 0 0 0 .73 6.03 2.2275 2.2275 0 0 0 1.5 1.59z" fill="#bed2e8"/><circle cx="15" cy="6.5" fill="#fa8f82" r="2.25"/><circle cx="15" cy="11.5" fill="#fa8f82" r="2.25"/><g fill="#807a6e"><path d="m14.709 7.165a.5359.5359 0 0 1 -.3853-.1523l-.2505-.25a.25.25 0 0 1 .3536-.3535l.25.25c.0122.0137.1313.0142.25-.1035l.6464-.6465a.25.25 0 1 1 .3536.3535l-.6465.6465a.8267.8267 0 0 1 -.5713.2558z"/><path d="m14.709 12.165a.5359.5359 0 0 1 -.3853-.1523l-.2505-.2505a.25.25 0 0 1 .3536-.3535l.25.25c.0122.0127.1313.0142.25-.1035l.6464-.6465a.25.25 0 1 1 .3536.3535l-.6465.6465a.8267.8267 0 0 1 -.5713.2563z"/><path d="m19 7.25h-1a.25.25 0 0 1 0-.5h1a.25.25 0 0 1 0 .5z"/><path d="m21 6.25h-3a.25.25 0 0 1 0-.5h3a.25.25 0 0 1 0 .5z"/><path d="m21 11.25h-3a.25.25 0 0 1 0-.5h3a.25.25 0 0 1 0 .5z"/><path d="m21 12.25h-3a.25.25 0 0 1 0-.5h3a.25.25 0 0 1 0 .5z"/></g><path d="m19.5 1.75h-5a.75.75 0 0 0 0 1.5h5a.75.75 0 0 0 0-1.5z" fill="#fa8f82"/><path d="m15.75 3.25h-1.25a.75.75 0 0 1 0-1.5h1.25a.75.75 0 0 0 0 1.5z" fill="#e68477"/><path d="m9.5791 7.2451a13.314 13.314 0 0 0 -7.1914.0093 2.2624 2.2624 0 0 0 -1.6377 2.168v3.16a2.28 2.28 0 0 0 1.6709 2.1776 13.2469 13.2469 0 0 0 7.1914-.0093 2.2622 2.2622 0 0 0 1.6377-2.1681v-3.16a2.28 2.28 0 0 0 -1.6709-2.1775z" fill="#f2c894"/><path d="m6.84 15.22q-.42.03-.84.03a13.1564 13.1564 0 0 1 -3.58-.49 2.2863 2.2863 0 0 1 -1.67-2.18v-3.16a2.2681 2.2681 0 0 1 1.64-2.17 13 13 0 0 1 4.43-.46 12.9636 12.9636 0 0 0 -2.68.46 2.2681 2.2681 0 0 0 -1.64 2.17v3.16a2.2863 2.2863 0 0 0 1.67 2.18 12.8706 12.8706 0 0 0 2.67.46z" fill="#d9b385"/><path d="m10 11.2525h-2a.25.25 0 1 1 0-.5h2a.25.25 0 0 1 0 .5z" fill="#807a6e"/><path d="m10 12.2525h-2a.25.25 0 1 1 0-.5h2a.25.25 0 0 1 0 .5z" fill="#807a6e"/><path d="m8.25 6.9625v1.33a1.2875 1.2875 0 0 1 -.62 1.11 1.3085 1.3085 0 0 1 -.68.2 1.38 1.38 0 0 1 -.59-.14.826.826 0 0 0 -.72 0 1.3062 1.3062 0 0 1 -1.27-.06 1.2875 1.2875 0 0 1 -.62-1.11v-1.34a12.8353 12.8353 0 0 1 4.5.01z" fill="#f5deb2"/><path d="m3.7483 6.9427a13.124 13.124 0 0 1 3.0717-.1527 12.9636 12.9636 0 0 0 -2.68.46 2.2813 2.2813 0 0 0 -.39.1528z" fill="#d9c49d"/><path d="m9.5791 15.2451a13.314 13.314 0 0 0 -7.1914.0093 2.2624 2.2624 0 0 0 -1.6377 2.168v3.16a2.28 2.28 0 0 0 1.6709 2.1776 13.2469 13.2469 0 0 0 7.1914-.0093 2.2622 2.2622 0 0 0 1.6377-2.1681v-3.16a2.28 2.28 0 0 0 -1.6709-2.1775z" fill="#f2c894"/><path d="m6.84 23.22q-.42.03-.84.03a13.1564 13.1564 0 0 1 -3.58-.49 2.2863 2.2863 0 0 1 -1.67-2.18v-3.16a2.2681 2.2681 0 0 1 1.64-2.17 13 13 0 0 1 4.43-.46 12.9636 12.9636 0 0 0 -2.68.46 2.2681 2.2681 0 0 0 -1.64 2.17v3.16a2.2863 2.2863 0 0 0 1.67 2.18 12.8706 12.8706 0 0 0 2.67.46z" fill="#d9b385"/><path d="m10 19.2525h-2a.25.25 0 0 1 0-.5h2a.25.25 0 0 1 0 .5z" fill="#807a6e"/><path d="m10 20.2525h-2a.25.25 0 0 1 0-.5h2a.25.25 0 0 1 0 .5z" fill="#807a6e"/><path d="m8.25 14.9625v1.33a1.2875 1.2875 0 0 1 -.62 1.11 1.3085 1.3085 0 0 1 -.68.2 1.38 1.38 0 0 1 -.59-.14.826.826 0 0 0 -.72 0 1.3062 1.3062 0 0 1 -1.27-.06 1.2875 1.2875 0 0 1 -.62-1.11v-1.34a12.8353 12.8353 0 0 1 4.5.01z" fill="#f5deb2"/><path d="m3.7483 14.9427a13.124 13.124 0 0 1 3.0717-.1527 12.9636 12.9636 0 0 0 -2.68.46 2.2813 2.2813 0 0 0 -.39.1528z" fill="#d9c49d"/><path d="m19.5791 15.2427a13.313 13.313 0 0 0 -7.1914.0093 2.2622 2.2622 0 0 0 -1.6377 2.168v3.16a2.28 2.28 0 0 0 1.6709 2.1772 13.2469 13.2469 0 0 0 7.1914-.0093 2.2622 2.2622 0 0 0 1.6377-2.1679v-3.16a2.28 2.28 0 0 0 -1.6709-2.1773z" fill="#f2c894"/><path d="m16.84 23.2175q-.42.03-.84.03a13.1525 13.1525 0 0 1 -3.58-.49 2.2862 2.2862 0 0 1 -1.67-2.18v-3.16a2.2682 2.2682 0 0 1 1.64-2.17 13.0019 13.0019 0 0 1 4.43-.46 12.9636 12.9636 0 0 0 -2.68.46 2.2682 2.2682 0 0 0 -1.64 2.17v3.16a2.2862 2.2862 0 0 0 1.67 2.18 12.8706 12.8706 0 0 0 2.67.46z" fill="#d9b385"/><path d="m20 19.25h-2a.25.25 0 0 1 0-.5h2a.25.25 0 0 1 0 .5z" fill="#807a6e"/><path d="m20 20.25h-2a.25.25 0 0 1 0-.5h2a.25.25 0 0 1 0 .5z" fill="#807a6e"/><path d="m18.25 14.96v1.33a1.2873 1.2873 0 0 1 -.62 1.11 1.3087 1.3087 0 0 1 -.68.2 1.38 1.38 0 0 1 -.59-.14.8267.8267 0 0 0 -.72 0 1.3059 1.3059 0 0 1 -1.27-.06 1.2873 1.2873 0 0 1 -.62-1.11v-1.34a12.8353 12.8353 0 0 1 4.5.01z" fill="#f5deb2"/><path d="m13.7483 14.94a13.124 13.124 0 0 1 3.0717-.1527 12.9636 12.9636 0 0 0 -2.68.46 2.2735 2.2735 0 0 0 -.39.1529z" fill="#d9c49d"/></svg>