<?xml version="1.0" encoding="iso-8859-1"?>
<!-- Generator: Adobe Illustrator 27.5.0, SVG Export Plug-In . SVG Version: 6.00 Build 0)  -->
<svg version="1.1" id="Layer_1" xmlns="http://www.w3.org/2000/svg" xmlns:xlink="http://www.w3.org/1999/xlink" x="0px" y="0px"
	 viewBox="0 0 512 512" style="enable-background:new 0 0 512 512;" xml:space="preserve">
<g>
	<g>
		<path style="fill:#33CCCC;" d="M486.22,234.036c-16.113-16.063-42.331-16.063-58.444,0c-7.816,7.792-12.121,18.156-12.121,29.181
			c0,11.024,4.305,21.387,12.121,29.179c8.057,8.033,18.638,12.049,29.222,12.048c10.581-0.001,21.166-4.017,29.222-12.048
			c7.816-7.792,12.121-18.155,12.121-29.179C498.341,252.191,494.037,241.828,486.22,234.036z M470.688,276.815
			c-7.548,7.525-19.83,7.526-27.379,0c-3.646-3.634-5.653-8.464-5.653-13.6c0-5.135,2.008-9.965,5.653-13.6
			c3.775-3.763,8.731-5.644,13.69-5.644c4.957,0,9.916,1.881,13.689,5.644c3.646,3.635,5.653,8.465,5.653,13.6
			C476.341,268.352,474.333,273.181,470.688,276.815z"/>
		<path style="fill:#33CCCC;" d="M434.707,125.581c0-9.308-3.634-18.056-10.232-24.634c-13.599-13.558-35.726-13.559-49.324,0
			c-6.599,6.578-10.232,15.327-10.232,24.634c0,9.307,3.634,18.056,10.232,24.634c6.8,6.779,15.729,10.169,24.662,10.168
			c8.931-0.001,17.864-3.39,24.663-10.168C431.073,143.637,434.707,134.888,434.707,125.581z M408.942,134.635
			c-5.036,5.019-13.226,5.019-18.26,0c-2.428-2.42-3.765-5.636-3.765-9.054c0-3.418,1.337-6.634,3.765-9.054
			c2.517-2.509,5.823-3.764,9.13-3.764c3.306,0,6.613,1.255,9.13,3.764c2.427,2.42,3.765,5.636,3.765,9.054
			C412.707,128.999,411.37,132.214,408.942,134.635z"/>
	</g>
	<g>
		<path d="M261.753,0c-37.908,0-68.748,30.761-68.748,68.571s30.84,68.571,68.748,68.571s68.748-30.761,68.748-68.571
			S299.661,0,261.753,0z M261.753,115.142c-25.777,0-46.748-20.892-46.748-46.571S235.977,22,261.753,22
			s46.748,20.892,46.748,46.571S287.53,115.142,261.753,115.142z"/>
		<path d="M433.604,367.115c-18.632-18.577-48.951-18.576-67.584,0c-9.037,9.009-14.014,20.99-14.014,33.736
			s4.977,24.727,14.014,33.736c9.316,9.288,21.554,13.932,33.792,13.932c12.238,0,24.476-4.644,33.792-13.932
			c9.037-9.009,14.014-20.99,14.014-33.736S442.642,376.124,433.604,367.115z M418.072,419.006
			c-10.068,10.037-26.452,10.038-36.52,0c-4.866-4.852-7.546-11.299-7.546-18.156s2.68-13.304,7.546-18.156
			c10.068-10.037,26.451-10.038,36.52,0c4.866,4.852,7.546,11.299,7.546,18.156S422.938,414.155,418.072,419.006z"/>
		<path d="M78.76,80.737c-12.013,11.976-18.629,27.901-18.629,44.843s6.616,32.868,18.629,44.844
			c12.388,12.351,28.661,18.526,44.934,18.526s32.546-6.175,44.934-18.526c12.014-11.977,18.629-27.902,18.629-44.844
			s-6.616-32.867-18.629-44.843C143.852,56.036,103.537,56.036,78.76,80.737z M153.096,154.845
			c-16.212,16.162-42.592,16.162-58.804,0c-7.843-7.819-12.162-18.211-12.162-29.264c0-11.052,4.319-21.445,12.162-29.263
			c8.106-8.081,18.754-12.122,29.402-12.122s21.296,4.041,29.402,12.122c7.842,7.818,12.162,18.211,12.162,29.263
			C165.258,136.633,160.939,147.026,153.096,154.845z"/>
		<path d="M140.854,263.216c0-34.979-28.53-63.436-63.598-63.436s-63.598,28.458-63.598,63.436s28.53,63.436,63.598,63.436
			S140.854,298.194,140.854,263.216z M35.659,263.216c0-22.848,18.661-41.436,41.598-41.436s41.598,18.588,41.598,41.436
			s-18.661,41.436-41.598,41.436S35.659,286.064,35.659,263.216z"/>
		<path d="M123.694,340.282c-33.481,0-60.721,27.171-60.721,60.568s27.239,60.568,60.721,60.568
			c33.482,0,60.721-27.171,60.721-60.568S157.176,340.282,123.694,340.282z M123.694,439.419c-21.351,0-38.721-17.302-38.721-38.568
			s17.37-38.568,38.721-38.568c21.351,0,38.721,17.302,38.721,38.568S145.045,439.419,123.694,439.419z"/>
		<path d="M261.753,403.722c-29.926,0-54.272,24.287-54.272,54.139S231.828,512,261.753,512s54.272-24.287,54.272-54.139
			S291.679,403.722,261.753,403.722z M261.753,490c-17.795,0-32.272-14.417-32.272-32.139s14.477-32.139,32.272-32.139
			s32.272,14.417,32.272,32.139S279.548,490,261.753,490z"/>
	</g>
</g>
<g>
</g>
<g>
</g>
<g>
</g>
<g>
</g>
<g>
</g>
<g>
</g>
<g>
</g>
<g>
</g>
<g>
</g>
<g>
</g>
<g>
</g>
<g>
</g>
<g>
</g>
<g>
</g>
<g>
</g>
</svg>
