<svg id="Layer_11" viewBox="0 0 24 24" xmlns="http://www.w3.org/2000/svg" data-name="Layer 11"><ellipse cx="12" cy="21.5" fill="#edf2ff" rx="7.25" ry="1.75"/><path d="m17.81 20.4c-.08.04-.17.07-.26.11a3.5969 3.5969 0 0 0 -1.51 1.19l-.49.65a2.3573 2.3573 0 0 1 -1.18.81c-.33.02-.65.04-.97.06a2.278 2.278 0 0 1 -1.45-.87l-.49-.65a3.5969 3.5969 0 0 0 -1.51-1.19 9.77 9.77 0 0 1 -1.22-.58 30.7185 30.7185 0 0 1 3.27-.18 23.3283 23.3283 0 0 1 5.81.65z" fill="#bed2e8"/><path d="m13.38 23.22c-.5.02-.97.03-1.38.03-2.51 0-7.25-.37-7.25-1.75s4.74-1.75 7.25-1.75c.41 0 .88.01 1.38.03-2.55.12-5.88.56-5.88 1.72s3.33 1.6 5.88 1.72z" fill="#bed2e8"/><path d="m12 .75a10.2462 10.2462 0 0 0 -3.8027 19.7622 3.5664 3.5664 0 0 1 1.5127 1.1878l.4908.6514a2.25 2.25 0 0 0 3.5986-.001l.49-.6509a3.5655 3.5655 0 0 1 1.5127-1.1875 10.2462 10.2462 0 0 0 -3.8021-19.762zm0 2.5a7.75 7.75 0 1 1 -7.75 7.75 7.7587 7.7587 0 0 1 7.75-7.75z" fill="#fa8f82"/><path d="m11.95 22.35-.49-.65a3.5969 3.5969 0 0 0 -1.51-1.19 10.2426 10.2426 0 0 1 2.92-19.72 8.4423 8.4423 0 0 0 -.87-.04 10.2443 10.2443 0 0 0 -3.8 19.76 3.5969 3.5969 0 0 1 1.51 1.19l.49.65a2.2883 2.2883 0 0 0 1.8.9 2.1719 2.1719 0 0 0 .88-.19 2.2335 2.2335 0 0 1 -.93-.71z" fill="#e68477"/><path d="m15.5791 7.2451a13.314 13.314 0 0 0 -7.1914.0093 2.2624 2.2624 0 0 0 -1.6377 2.168v3.16a2.28 2.28 0 0 0 1.6709 2.1776 13.2469 13.2469 0 0 0 7.1914-.0093 2.2622 2.2622 0 0 0 1.6377-2.1681v-3.16a2.28 2.28 0 0 0 -1.6709-2.1775z" fill="#f2c894"/><path d="m12.84 15.22q-.42.03-.84.03a13.1564 13.1564 0 0 1 -3.58-.49 2.2863 2.2863 0 0 1 -1.67-2.18v-3.16a2.2681 2.2681 0 0 1 1.64-2.17 13 13 0 0 1 4.43-.46 12.9636 12.9636 0 0 0 -2.68.46 2.2681 2.2681 0 0 0 -1.64 2.17v3.16a2.2863 2.2863 0 0 0 1.67 2.18 12.8706 12.8706 0 0 0 2.67.46z" fill="#d9b385"/><path d="m16 11.2525h-2a.25.25 0 0 1 0-.5h2a.25.25 0 0 1 0 .5z" fill="#807a6e"/><path d="m16 12.2525h-2a.25.25 0 0 1 0-.5h2a.25.25 0 0 1 0 .5z" fill="#807a6e"/><path d="m14.25 6.9625v1.33a1.2875 1.2875 0 0 1 -.62 1.11 1.3085 1.3085 0 0 1 -.68.2 1.38 1.38 0 0 1 -.59-.14.826.826 0 0 0 -.72 0 1.3062 1.3062 0 0 1 -1.27-.06 1.2875 1.2875 0 0 1 -.62-1.11v-1.34a12.8353 12.8353 0 0 1 4.5.01z" fill="#f5deb2"/><path d="m9.7483 6.9427a13.124 13.124 0 0 1 3.0717-.1527 12.9636 12.9636 0 0 0 -2.68.46 2.2813 2.2813 0 0 0 -.39.1528z" fill="#d9c49d"/></svg>