<svg id="Layer_11" viewBox="0 0 24 24" xmlns="http://www.w3.org/2000/svg" data-name="Layer 11"><path d="m20.4512 14.7837a.2572.2572 0 0 1 -.2012-.2537v-7.78h-3.78a3.9852 3.9852 0 0 1 -.872-.103l-2.6211-.6206a4.3271 4.3271 0 0 0 -1.9541.0005l-2.6172.62a4.0036 4.0036 0 0 1 -.8756.1031h-3.78v7.78a.2566.2566 0 0 1 -.1943.2524 3.2488 3.2488 0 0 0 .4443 6.4676h3.53a4.4989 4.4989 0 0 0 .9873-.1167l2.6191-.62a3.7994 3.7994 0 0 1 1.7256 0l2.6231.6206a4.4805 4.4805 0 0 0 .9843.1162h3.5306a3.2488 3.2488 0 0 0 .4512-6.4663z" fill="#91d7f2"/><path d="m17.3291 9.2477a13.313 13.313 0 0 0 -7.1914.0092 2.2624 2.2624 0 0 0 -1.6377 2.168v3.16a2.28 2.28 0 0 0 1.6709 2.1772 13.2469 13.2469 0 0 0 7.1914-.0093 2.2622 2.2622 0 0 0 1.6377-2.1677v-3.16a2.2794 2.2794 0 0 0 -1.6709-2.1774z" fill="#85c5de"/><path d="m5.75 21.25h-1.75a3.25 3.25 0 0 1 -.44-6.47.26.26 0 0 0 .19-.25v-7.78h1.75v7.78a.26.26 0 0 1 -.19.25 3.25 3.25 0 0 0 .44 6.47z" fill="#85c5de"/><path d="m6.42 10.05a.7511.7511 0 0 1 .75-.75 1.2511 1.2511 0 0 0 1.25-1.25v-1.41l-.2949.0537a3.296 3.296 0 0 1 -.5951.0563h-3.78v7.1514l.3652-.189a3.664 3.664 0 0 1 1.7048-.4124h1.43v-1.88a1.3354 1.3354 0 0 1 .0322-.3188l.0694-.2749-.2816-.0343a.7553.7553 0 0 1 -.65-.742z" fill="#a5fa9b"/><path d="m3.75 6.75h1.75v6.57a3.5265 3.5265 0 0 0 -1.38.39l-.37.19z" fill="#97e68e"/><path d="m20.4512 14.7837a.2572.2572 0 0 1 -.2012-.2537v-3.2566l-.2568.0069a2.2465 2.2465 0 0 0 -2.1932 2.2597 15.9354 15.9354 0 0 0 .1221 2.02 16.788 16.788 0 0 0 .4355 2.291 1.2264 1.2264 0 0 1 .043.2988 1.113 1.113 0 0 1 -2.2051.231l-.38-1.88-.0547-.1143-.1582-.1577-.1416.041a11.7791 11.7791 0 0 1 -2.3808.4312l-.2744.0718.0478.2212a1.8227 1.8227 0 0 1 -.4521.7719 1.7028 1.7028 0 0 1 -1.2315.5141 3.1472 3.1472 0 0 0 -3.08 2.36c-.0127.0425-.0214.085-.03.1275l-.1084.4023h.3284a.7933.7933 0 0 0 .1728-.0234l2.6836-.6328a3.7994 3.7994 0 0 1 1.7256 0l2.6231.6206a4.4805 4.4805 0 0 0 .9843.1162h3.5306a3.2488 3.2488 0 0 0 .4512-6.4663z" fill="#a5fa9b"/><path d="m15.93 17.07a13.2678 13.2678 0 0 1 -2.18.18c-.33 0-.65-.01-.98-.04a1.4273 1.4273 0 0 0 .08-.22l-.04-.22.27-.07a12.0081 12.0081 0 0 0 2.38-.43l.14-.04.16.16.06.11z" fill="#97e68e"/><path d="m19 11.54v3.05a2.25 2.25 0 0 1 -.95 1.83c-.05-.28-.09-.57-.13-.86a16.3715 16.3715 0 0 1 -.12-2.02 2.2481 2.2481 0 0 1 1.2-2z" fill="#97e68e"/><path d="m4.25 3.55v10.98a.7293.7293 0 0 1 -.62.74 2.766 2.766 0 0 0 -2.38 2.73v1.72a3.1766 3.1766 0 0 1 -.5-1.72v-12a3.2448 3.2448 0 0 1 2.6-3.18.7273.7273 0 0 1 .62.15.754.754 0 0 1 .28.58z" fill="#6593a6"/><path d="m23.25 6v12a3.1766 3.1766 0 0 1 -.5 1.72v-1.72a2.766 2.766 0 0 0 -2.38-2.73.7293.7293 0 0 1 -.62-.74v-10.98a.754.754 0 0 1 .28-.58.7273.7273 0 0 1 .62-.15 3.2448 3.2448 0 0 1 2.6 3.18z" fill="#6593a6"/><path d="m15.5791 9.2477a13.313 13.313 0 0 0 -7.1914.0092 2.2624 2.2624 0 0 0 -1.6377 2.168v3.16a2.28 2.28 0 0 0 1.6709 2.1772 13.2469 13.2469 0 0 0 7.1914-.0093 2.2622 2.2622 0 0 0 1.6377-2.1677v-3.16a2.2794 2.2794 0 0 0 -1.6709-2.1774z" fill="#f2c894"/><path d="m12.84 17.2225q-.42.03-.84.03a13.1564 13.1564 0 0 1 -3.58-.49 2.2863 2.2863 0 0 1 -1.67-2.18v-3.16a2.2681 2.2681 0 0 1 1.64-2.17 13 13 0 0 1 4.43-.46 12.9636 12.9636 0 0 0 -2.68.46 2.2681 2.2681 0 0 0 -1.64 2.17v3.16a2.2863 2.2863 0 0 0 1.67 2.18 12.8706 12.8706 0 0 0 2.67.46z" fill="#d9b385"/><path d="m16 13.255h-2a.25.25 0 0 1 0-.5h2a.25.25 0 0 1 0 .5z" fill="#807a6e"/><path d="m16 14.255h-2a.25.25 0 0 1 0-.5h2a.25.25 0 0 1 0 .5z" fill="#807a6e"/><path d="m14.25 8.965v1.33a1.2873 1.2873 0 0 1 -.62 1.11 1.3087 1.3087 0 0 1 -.68.2 1.38 1.38 0 0 1 -.59-.14.8267.8267 0 0 0 -.72 0 1.3059 1.3059 0 0 1 -1.27-.06 1.2873 1.2873 0 0 1 -.62-1.11v-1.34a12.8353 12.8353 0 0 1 4.5.01z" fill="#f5deb2"/><path d="m9.7483 8.9452a13.124 13.124 0 0 1 3.0717-.1527 12.9636 12.9636 0 0 0 -2.68.46 2.2813 2.2813 0 0 0 -.39.1528z" fill="#d9c49d"/></svg>