<svg id="Capa_1" enable-background="new 0 0 512 512" viewBox="0 0 512 512" xmlns="http://www.w3.org/2000/svg" xmlns:xlink="http://www.w3.org/1999/xlink"><linearGradient id="lg1"><stop offset="0" stop-color="#f5fbff"/><stop offset="1" stop-color="#dbd5ef"/></linearGradient><linearGradient id="SVGID_1_" gradientUnits="userSpaceOnUse" x1="181.886" x2="119.705" xlink:href="#lg1" y1="93.266" y2="147.793"/><linearGradient id="lg2"><stop offset="0" stop-color="#dbd5ef" stop-opacity="0"/><stop offset=".2853" stop-color="#d9d2ee" stop-opacity=".285"/><stop offset=".4739" stop-color="#d4c9e9" stop-opacity=".474"/><stop offset=".6346" stop-color="#cbbae2" stop-opacity=".635"/><stop offset=".7795" stop-color="#bfa5d7" stop-opacity=".78"/><stop offset=".9126" stop-color="#af8aca" stop-opacity=".913"/><stop offset="1" stop-color="#a274bf"/></linearGradient><linearGradient id="SVGID_00000074420857730141474710000000660619126720077479_" gradientUnits="userSpaceOnUse" x1="123.461" x2="103.366" xlink:href="#lg2" y1="64.979" y2="64.979"/><linearGradient id="lg3"><stop offset="0" stop-color="#5a5a5a"/><stop offset="1" stop-color="#444"/></linearGradient><linearGradient id="SVGID_00000147186205898164110830000010028446813198676393_" gradientTransform="matrix(-.707 -.707 -.707 .707 -1350.714 -.873)" gradientUnits="userSpaceOnUse" x1="-1019.785" x2="-1033.24" xlink:href="#lg3" y1="-962.839" y2="-949.383"/><linearGradient id="lg4"><stop offset="0" stop-color="#433f43" stop-opacity="0"/><stop offset="1" stop-color="#1a1a1a"/></linearGradient><linearGradient id="SVGID_00000178202247362825377860000013841785318722923663_" gradientTransform="matrix(-.707 -.707 -.707 .707 -1350.714 -.873)" gradientUnits="userSpaceOnUse" x1="-995.777" x2="-1010.192" xlink:href="#lg4" y1="-977.078" y2="-905.004"/><linearGradient id="SVGID_00000157999108831564018800000004955176499843470503_" gradientTransform="matrix(-.707 -.707 -.707 .707 -1350.714 -.873)" gradientUnits="userSpaceOnUse" x1="-1032.269" x2="-1045.723" xlink:href="#lg4" y1="-950.278" y2="-936.504"/><linearGradient id="SVGID_00000152946410378324740970000008834623788168099990_" gradientTransform="matrix(0 1 1 0 -147.571 -188.924)" gradientUnits="userSpaceOnUse" x1="240.963" x2="240.963" xlink:href="#lg4" y1="235.472" y2="249.565"/><linearGradient id="SVGID_00000027564047563050839790000008827531891844037767_" gradientUnits="userSpaceOnUse" x1="134.396" x2="180.314" xlink:href="#lg2" y1="146.671" y2="141.409"/><linearGradient id="SVGID_00000114054100288475066550000000514195588709856153_" gradientUnits="userSpaceOnUse" x1="176.8" x2="167.712" xlink:href="#lg2" y1="190.076" y2="245.56"/><linearGradient id="SVGID_00000019666115217560728850000018058401889682595995_" gradientUnits="userSpaceOnUse" x1="338.533" x2="338.533" xlink:href="#lg1" y1="412.087" y2="438.672"/><linearGradient id="SVGID_00000124134639516405728380000002201921709245609601_" gradientUnits="userSpaceOnUse" x1="257.381" x2="257.381" xlink:href="#lg2" y1="396.781" y2="377.887"/><linearGradient id="SVGID_00000107575379810024177030000000799290040122636447_" gradientUnits="userSpaceOnUse" x1="273.518" x2="295.76" xlink:href="#lg2" y1="380.548" y2="402.072"/><linearGradient id="SVGID_00000036237632889708028300000015226772570436100790_" gradientUnits="userSpaceOnUse" x1="338.755" x2="338.755" xlink:href="#lg2" y1="412.565" y2="437.662"/><linearGradient id="SVGID_00000127740573048462878570000009313042358721507214_" gradientUnits="userSpaceOnUse" x1="318.622" x2="298.532" xlink:href="#lg2" y1="417.341" y2="429.538"/><linearGradient id="SVGID_00000120518829144118020300000016553954725295584911_" gradientUnits="userSpaceOnUse" x1="419.538" x2="474.751" xlink:href="#lg2" y1="424.061" y2="424.061"/><linearGradient id="SVGID_00000158709185058064179230000001855194791245448076_" gradientUnits="userSpaceOnUse" x1="461.69" x2="443.394" xlink:href="#lg2" y1="408.344" y2="419.465"/><linearGradient id="lg5"><stop offset="0" stop-color="#b3dafe"/><stop offset="1" stop-color="#0182fc"/></linearGradient><linearGradient id="SVGID_00000173870792638885588040000013779730343407443121_" gradientUnits="userSpaceOnUse" x1="280.078" x2="409.474" xlink:href="#lg5" y1="142.995" y2="354.905"/><linearGradient id="lg6"><stop offset="0" stop-color="#314dc9" stop-opacity="0"/><stop offset=".2761" stop-color="#304bc4" stop-opacity=".276"/><stop offset=".5628" stop-color="#2b45b8" stop-opacity=".563"/><stop offset=".8535" stop-color="#243ba3" stop-opacity=".854"/><stop offset="1" stop-color="#1f3596"/></linearGradient><linearGradient id="SVGID_00000087393363057007161490000014556857618751518088_" gradientUnits="userSpaceOnUse" x1="435.656" x2="485.031" xlink:href="#lg6" y1="268.814" y2="275.204"/><linearGradient id="SVGID_00000058552659040853703190000018332572847011230644_" gradientUnits="userSpaceOnUse" x1="338.533" x2="338.533" xlink:href="#lg6" y1="236.526" y2="180.516"/><linearGradient id="SVGID_00000154396184871788402970000000407870729168665007_" gradientUnits="userSpaceOnUse" x1="338.533" x2="338.533" xlink:href="#lg5" y1="110.548" y2="131.515"/><linearGradient id="SVGID_00000014613496337598504570000012941977264905842050_" gradientUnits="userSpaceOnUse" x1="338.533" x2="338.533" xlink:href="#lg6" y1="160.782" y2="187.212"/><linearGradient id="SVGID_00000068648948882894366740000008071229310590656959_" gradientUnits="userSpaceOnUse" x1="429.774" x2="512.587" xlink:href="#lg6" y1="146.208" y2="146.208"/><linearGradient id="SVGID_00000030466780238910099580000006579362990550645909_" gradientUnits="userSpaceOnUse" x1="338.533" x2="338.533" xlink:href="#lg6" y1="342.246" y2="376.434"/><linearGradient id="SVGID_00000171688354375180268580000000337684305569437116_" gradientUnits="userSpaceOnUse" x1="245.914" x2="285.008" xlink:href="#lg3" y1="429.641" y2="468.736"/><linearGradient id="SVGID_00000010311697451229854120000004258740849038666410_" gradientUnits="userSpaceOnUse" x1="262.53" x2="262.53" xlink:href="#lg4" y1="446.802" y2="497.392"/><linearGradient id="SVGID_00000040544010613015188690000004470522813614157953_" gradientTransform="matrix(.707 -.707 .707 .707 2533.593 -1665.189)" gradientUnits="userSpaceOnUse" x1="-3098.902" x2="-3098.902" xlink:href="#lg4" y1="-112.322" y2="-59.071"/><linearGradient id="SVGID_00000080166167360351903020000009072410387140139956_" gradientUnits="userSpaceOnUse" x1="272.862" x2="240.551" xlink:href="#lg4" y1="456.59" y2="424.279"/><linearGradient id="SVGID_00000103223520079854505750000005249532930185920146_" gradientUnits="userSpaceOnUse" x1="254.63" x2="273.216" xlink:href="#lg1" y1="438.358" y2="456.944"/><linearGradient id="SVGID_00000142886059772031752870000012244395102578829976_" gradientUnits="userSpaceOnUse" x1="262.53" x2="262.53" xlink:href="#lg2" y1="446.516" y2="470.567"/><linearGradient id="SVGID_00000133495918254489206100000007812878462857934261_" gradientTransform="matrix(.707 -.707 .707 .707 2533.593 -1665.189)" gradientUnits="userSpaceOnUse" x1="-3098.902" x2="-3098.902" xlink:href="#lg2" y1="-112.608" y2="-87.291"/><linearGradient id="SVGID_00000140008207937984701930000016514748092943749022_" gradientUnits="userSpaceOnUse" x1="397.919" x2="437.014" xlink:href="#lg3" y1="429.641" y2="468.736"/><linearGradient id="SVGID_00000059271414012285903470000007113805602997800583_" gradientUnits="userSpaceOnUse" x1="414.536" x2="414.536" xlink:href="#lg4" y1="446.802" y2="497.392"/><linearGradient id="SVGID_00000130606761844063615500000005983661610841714838_" gradientTransform="matrix(.707 -.707 .707 .707 2533.593 -1665.189)" gradientUnits="userSpaceOnUse" x1="-2991.418" x2="-2991.418" xlink:href="#lg4" y1="-4.838" y2="48.414"/><linearGradient id="SVGID_00000129183242009153453570000004252970794271502768_" gradientUnits="userSpaceOnUse" x1="424.868" x2="392.557" xlink:href="#lg4" y1="456.59" y2="424.279"/><linearGradient id="SVGID_00000090975366402022274810000010619983071080489395_" gradientUnits="userSpaceOnUse" x1="406.636" x2="425.222" xlink:href="#lg1" y1="438.358" y2="456.944"/><linearGradient id="SVGID_00000017507050899852131320000008621756237051753088_" gradientUnits="userSpaceOnUse" x1="414.536" x2="414.536" xlink:href="#lg2" y1="446.516" y2="470.567"/><linearGradient id="SVGID_00000060733744035526372370000002397732445785408432_" gradientTransform="matrix(.707 -.707 .707 .707 2533.593 -1665.189)" gradientUnits="userSpaceOnUse" x1="-2991.418" x2="-2991.418" xlink:href="#lg2" y1="-5.123" y2="20.193"/><g><g><path d="m190.727 249.807c-14.529 1.807-27.772-8.506-29.579-23.035l-15.243-122.556c-2.32-21.135-20.103-37.074-41.365-37.074h-43.243c-8.338 0-15.097-6.759-15.097-15.097s6.759-15.097 15.097-15.097h43.243c36.65 0 67.308 27.444 71.365 63.856l18.479 148.547z" fill="url(#SVGID_1_)"/></g><path d="m143.072 48.144c-11.168-7.101-24.4-11.195-38.532-11.195h-43.243c-8.338 0-15.097 6.759-15.097 15.097s6.759 15.097 15.097 15.097h43.243c17.299 0 32.293 10.55 38.532 25.865z" fill="url(#SVGID_00000074420857730141474710000000660619126720077479_)"/><g><g><path d="m0 38.997v26.098c0 10.354 9.528 18.007 19.668 15.913.07-.015.141-.029.211-.043l40.499-8.221c9.856-2.004 19.964-1.592 29.49 1.091 6.314 1.775 12.559-3.06 12.559-9.619v-24.34c0-6.559-6.244-11.393-12.559-9.619-9.526 2.683-19.634 3.095-29.49 1.091l-40.499-8.221c-.07-.014-.141-.029-.211-.043-10.14-2.094-19.668 5.559-19.668 15.913z" fill="url(#SVGID_00000147186205898164110830000010028446813198676393_)"/><path d="m19.668 23.084c.07.015.14.029.211.043l9.84 1.997v53.843l-9.84 1.997c-.07.014-.141.029-.211.043-10.14 2.095-19.668-5.558-19.668-15.912v-26.098c0-10.354 9.528-18.007 19.668-15.913z" fill="url(#SVGID_00000178202247362825377860000013841785318722923663_)"/><path d="m0 65.095v-24.343h102.425v23.464c0 6.559-6.244 11.394-12.559 9.619-9.526-2.683-19.634-3.095-29.49-1.091l-40.499 8.221c-.07.014-.141.029-.211.043-10.138 2.094-19.666-5.559-19.666-15.913z" fill="url(#SVGID_00000157999108831564018800000004955176499843470503_)"/><path d="m62.184 31.687c9.28 1.605 18.738 1.089 27.683-1.43 6.314-1.775 12.558 3.06 12.558 9.619v24.34c0 6.559-6.244 11.394-12.558 9.619-8.944-2.52-18.402-3.036-27.683-1.43z" fill="url(#SVGID_00000152946410378324740970000008834623788168099990_)"/></g></g><path d="m120.292 38.695v31.536c13.751 5.614 23.9 18.378 25.613 33.985l15.243 122.556c1.807 14.529 15.05 24.842 29.579 23.035l3.657-.455-18.479-148.547c-3.458-31.042-26.256-55.552-55.613-62.11z" fill="url(#SVGID_00000027564047563050839790000008827531891844037767_)"/><path d="m161.148 226.772c1.807 14.529 15.05 24.842 29.579 23.035l3.657-.455-10.429-83.838h-30.426z" fill="url(#SVGID_00000114054100288475066550000000514195588709856153_)"/><g><g><g><path d="m461.2 437.776h-222.342c-19.771 0-36.348-15.641-36.704-35.408-.364-20.191 15.955-36.733 36.064-36.733h60.678c7.576 0 13.718 6.142 13.718 13.718s-6.142 13.718-13.718 13.718h-60.394c-4.511 0-8.475 3.34-8.882 7.833-.464 5.12 3.573 9.436 8.598 9.436h222.982c7.576 0 13.718 6.142 13.718 13.718s-6.142 13.718-13.718 13.718z" fill="url(#SVGID_00000019666115217560728850000018058401889682595995_)"/></g><path d="m229.62 400.905c.407-4.493 4.37-7.834 8.882-7.834h60.394c7.576 0 13.718-6.142 13.718-13.718s-6.142-13.718-13.718-13.718h-60.678c-20.109 0-36.428 16.541-36.064 36.733.04 2.222.296 4.389.727 6.49h30.522c-2.503-1.691-4.082-4.651-3.783-7.953z" fill="url(#SVGID_00000124134639516405728380000002201921709245609601_)"/><path d="m312.617 379.355c0 7.579-6.149 13.718-13.718 13.718h-58.777v-27.436h58.777c7.569 0 13.718 6.139 13.718 13.718z" fill="url(#SVGID_00000107575379810024177030000000799290040122636447_)"/><g><path d="m474.917 424.061c0 3.784-1.54 7.216-4.016 9.702-2.486 2.476-5.918 4.016-9.702 4.016h-222.345c-18.096 0-33.525-13.114-36.262-30.506.091.523.181 1.057.292 1.58h30.485c1.389.936 3.06 1.49 4.851 1.49h222.979c7.579 0 13.718 6.14 13.718 13.718z" fill="url(#SVGID_00000036237632889708028300000015226772570436100790_)"/></g><path d="m270.782 410.343h73.541v27.436h-73.541z" fill="url(#SVGID_00000127740573048462878570000009313042358721507214_)"/><path d="m461.199 410.343h-54.576v27.436h54.576c3.784 0 7.216-1.54 9.702-4.016 2.476-2.486 4.016-5.918 4.016-9.702 0-7.578-6.139-13.718-13.718-13.718z" fill="url(#SVGID_00000120518829144118020300000016553954725295584911_)"/><path d="m461.199 410.343h-54.576v27.436h54.576c3.784 0 7.216-1.54 9.702-4.016 2.476-2.486 4.016-5.918 4.016-9.702 0-7.578-6.139-13.718-13.718-13.718z" fill="url(#SVGID_00000158709185058064179230000001855194791245448076_)"/></g><g><path d="m176.354 154.645 24.168 203.712c1.369 11.571 11.18 20.29 22.832 20.29h230.358c11.652 0 21.463-8.719 22.832-20.29l24.168-203.712zm66.524 192.443c-8.287 0-15.124-6.502-15.547-14.781l-5.508-108.66c-.456-8.898 6.641-16.354 15.547-16.354h.008c8.287 0 15.124 6.495 15.547 14.781l5.5 108.652c.016.269.024.546.024.815.001 8.531-6.934 15.547-15.571 15.547zm80.45-15.555c0 8.572-6.959 15.555-15.564 15.555-8.499 0-15.433-6.82-15.572-15.319l-1.76-108.66c-.147-8.694 6.869-15.816 15.564-15.816 8.499 0 15.433 6.812 15.572 15.311l1.76 108.66zm63.306-108.424-1.76 108.66c-.139 8.499-7.073 15.319-15.572 15.319-8.605 0-15.564-6.983-15.564-15.555v-.269l1.76-108.66c.138-8.499 7.073-15.311 15.572-15.311 8.605 0 15.564 6.975 15.564 15.547zm63.101 109.198c-.424 8.279-7.26 14.781-15.547 14.781-8.637 0-15.572-7.016-15.572-15.547 0-.269.008-.546.024-.815l5.5-108.652c.424-8.287 7.26-14.781 15.547-14.781h.008c8.906 0 16.004 7.456 15.547 16.354z" fill="url(#SVGID_00000173870792638885588040000013779730343407443121_)"/><path d="m337.09 378.647h116.622c11.652 0 21.463-8.719 22.832-20.29l24.168-203.712h-163.622zm81.551-47.921 5.5-108.652c.424-8.287 7.26-14.781 15.547-14.781h.008c8.906 0 16.004 7.456 15.547 16.354l-5.508 108.66c-.424 8.279-7.26 14.781-15.547 14.781-8.637 0-15.572-7.016-15.572-15.547 0-.269.009-.546.025-.815zm-63.143-108.122c.138-8.499 7.073-15.311 15.572-15.311 8.605 0 15.564 6.975 15.564 15.547v.269l-1.76 108.66c-.139 8.499-7.073 15.319-15.572 15.319-8.605 0-15.564-6.983-15.564-15.555v-.269z" fill="url(#SVGID_00000087393363057007161490000014556857618751518088_)"/><path d="m189.1 262.084h34.671l-1.949-38.438c-.456-8.898 6.641-16.354 15.547-16.354h.008c8.287 0 15.124 6.495 15.547 14.781l2.025 40.01h36.113l-.631-38.975c-.147-8.694 6.869-15.816 15.564-15.816 8.499 0 15.433 6.812 15.572 15.311l.64 39.481h32.651l.64-39.481c.138-8.499 7.073-15.311 15.572-15.311 8.605 0 15.564 6.975 15.564 15.547v.269l-.631 38.975h36.113l2.025-40.01c.424-8.287 7.26-14.781 15.547-14.781h.008c8.906 0 16.004 7.456 15.547 16.354l-1.949 38.438h34.671l12.747-107.439h-324.358z" fill="url(#SVGID_00000058552659040853703190000018332572847011230644_)"/><g><path d="m478.479 105.053h-279.892c-3.122 0-6.15 1.07-8.579 3.032l-6.443 5.204c-11.699 9.448-18.498 23.679-18.498 38.717v21.704c0 7.541 6.113 13.654 13.654 13.654h319.625c7.541 0 13.654-6.113 13.654-13.654v-21.704c0-15.038-6.799-29.269-18.498-38.717l-6.443-5.204c-2.43-1.962-5.458-3.032-8.58-3.032z" fill="url(#SVGID_00000154396184871788402970000000407870729168665007_)"/><path d="m165.066 151.254v22.455c0 7.541 6.113 13.654 13.654 13.654h319.625c7.541 0 13.654-6.113 13.654-13.654v-22.455z" fill="url(#SVGID_00000014613496337598504570000012941977264905842050_)"/><path d="m493.502 113.288-6.443-5.204c-2.429-1.962-5.457-3.032-8.579-3.032h-83.844v82.311h103.711c7.541 0 13.654-6.113 13.654-13.654v-21.704c-.001-15.038-6.8-29.269-18.499-38.717z" fill="url(#SVGID_00000068648948882894366740000008071229310590656959_)"/></g><path d="m452.824 271.378-3.089 60.928c-.424 8.279-7.26 14.781-15.547 14.781-8.637 0-15.572-7.016-15.572-15.547 0-.269.008-.546.024-.815l3.004-59.347h-35.793l-.978 60.39c-.139 8.499-7.073 15.319-15.572 15.319-8.605 0-15.564-6.983-15.564-15.555v-.269l.97-59.885h-32.35l.97 59.885v.269c0 8.572-6.959 15.555-15.564 15.555-8.499 0-15.433-6.82-15.572-15.319l-.978-60.39h-35.793l3.004 59.347c.016.269.024.546.024.815 0 8.531-6.934 15.547-15.572 15.547-8.287 0-15.124-6.502-15.547-14.781l-3.089-60.928h-34.039l10.319 86.979c1.369 11.571 11.18 20.29 22.832 20.29h230.358c11.652 0 21.463-8.719 22.832-20.29l10.319-86.979z" fill="url(#SVGID_00000030466780238910099580000006579362990550645909_)"/></g><g><g><g><circle cx="262.53" cy="446.258" fill="url(#SVGID_00000171688354375180268580000000337684305569437116_)" r="43.005"/><path d="m219.525 446.258c0 23.751 19.254 43.005 43.005 43.005s43.005-19.254 43.005-43.005c0-5.144-.906-10.075-2.562-14.647h-80.886c-1.656 4.571-2.562 9.503-2.562 14.647z" fill="url(#SVGID_00000010311697451229854120000004258740849038666410_)"/><path d="m232.121 476.667c16.794 16.794 44.024 16.795 60.819 0s16.794-44.024 0-60.819c-3.637-3.637-7.765-6.484-12.169-8.545l-57.195 57.195c2.061 4.404 4.907 8.532 8.545 12.169z" fill="url(#SVGID_00000040544010613015188690000004470522813614157953_)"/></g><circle cx="262.53" cy="446.258" fill="url(#SVGID_00000080166167360351903020000009072410387140139956_)" r="27.718"/><g><circle cx="262.53" cy="446.258" fill="url(#SVGID_00000103223520079854505750000005249532930185920146_)" r="20.445"/><path d="m242.085 446.258c0 11.291 9.154 20.445 20.445 20.445 11.292 0 20.445-9.154 20.445-20.445 0-2.445-.431-4.79-1.218-6.964h-38.454c-.787 2.174-1.218 4.518-1.218 6.964z" fill="url(#SVGID_00000142886059772031752870000012244395102578829976_)"/><path d="m248.073 460.714c7.984 7.984 20.929 7.984 28.914 0 7.984-7.984 7.984-20.929 0-28.914-1.729-1.729-3.692-3.082-5.785-4.063l-27.191 27.191c.98 2.095 2.333 4.057 4.062 5.786z" fill="url(#SVGID_00000133495918254489206100000007812878462857934261_)"/></g></g><g><g><circle cx="414.536" cy="446.258" fill="url(#SVGID_00000140008207937984701930000016514748092943749022_)" r="43.005"/><path d="m371.531 446.258c0 23.751 19.254 43.005 43.005 43.005s43.005-19.254 43.005-43.005c0-5.144-.906-10.075-2.562-14.647h-80.886c-1.656 4.571-2.562 9.503-2.562 14.647z" fill="url(#SVGID_00000059271414012285903470000007113805602997800583_)"/><path d="m384.127 476.667c16.795 16.794 44.024 16.795 60.819 0s16.794-44.024 0-60.819c-3.637-3.637-7.765-6.484-12.169-8.545l-57.195 57.195c2.061 4.404 4.907 8.532 8.545 12.169z" fill="url(#SVGID_00000130606761844063615500000005983661610841714838_)"/></g><circle cx="414.536" cy="446.258" fill="url(#SVGID_00000129183242009153453570000004252970794271502768_)" r="27.718"/><g><circle cx="414.536" cy="446.258" fill="url(#SVGID_00000090975366402022274810000010619983071080489395_)" r="20.445"/><path d="m394.091 446.258c0 11.291 9.154 20.445 20.445 20.445 11.292 0 20.445-9.154 20.445-20.445 0-2.445-.431-4.79-1.218-6.964h-38.454c-.787 2.174-1.218 4.518-1.218 6.964z" fill="url(#SVGID_00000017507050899852131320000008621756237051753088_)"/><path d="m400.079 460.714c7.984 7.984 20.929 7.984 28.914 0 7.984-7.984 7.984-20.929 0-28.914-1.729-1.729-3.692-3.082-5.785-4.063l-27.191 27.191c.98 2.095 2.333 4.057 4.062 5.786z" fill="url(#SVGID_00000060733744035526372370000002397732445785408432_)"/></g></g></g></g></g><g/><g/><g/><g/><g/><g/><g/><g/><g/><g/><g/><g/><g/><g/><g/></svg>