<svg id="Layer_11" viewBox="0 0 24 24" xmlns="http://www.w3.org/2000/svg" data-name="Layer 11"><circle cx="12" cy="12" fill="#91d7f2" r="11.25"/><path d="m16 13.42v3.16a2.2681 2.2681 0 0 1 -1.64 2.17 13.383 13.383 0 0 1 -3.61.5 13.5569 13.5569 0 0 1 -3.58-.49 2.2863 2.2863 0 0 1 -1.67-2.18v-3.16a2.2681 2.2681 0 0 1 1.64-2.17 13.4 13.4 0 0 1 7.19-.01 2.2863 2.2863 0 0 1 1.67 2.18z" fill="#85c5de"/><path d="m13.63 23.13a10.9736 10.9736 0 0 1 -1.63.12 11.25 11.25 0 0 1 0-22.5 10.9736 10.9736 0 0 1 1.63.12 11.2468 11.2468 0 0 0 0 22.26z" fill="#85c5de"/><path d="m12.25 7a1.25 1.25 0 0 1 -1.25 1.25h-3.34a3.745 3.745 0 0 0 -2.66 1.1l-.32.32a2.01 2.01 0 0 1 -3.34-.86c-.02-.07-.04-.15-.06-.22a11.29 11.29 0 0 1 8.97-7.7v2.11a1.25 1.25 0 0 1 -1.25 1.25.75.75 0 0 0 0 1.5h2a1.25 1.25 0 0 1 1.25 1.25z" fill="#a5fa9b"/><path d="m10.25.89v1.04a11.2469 11.2469 0 0 0 -6.07 8.1 1.9625 1.9625 0 0 1 -.9.22 1.99 1.99 0 0 1 -1.94-1.44c-.02-.07-.04-.15-.06-.22a11.29 11.29 0 0 1 8.97-7.7z" fill="#97e68e"/><path d="m23.25 12a11.2554 11.2554 0 0 1 -6.94 10.38h-.01c-.45-.03-.89-.08-1.33-.13-.82-.1-1.65-.23-2.47-.4a3.4435 3.4435 0 0 1 -2.75-3.85c.05-.33.11-.61.17-.88a3.1641 3.1641 0 0 1 3.08-2.37 1.7584 1.7584 0 0 0 1.75-1.75v-.9a1.3485 1.3485 0 0 1 2.67-.27l.61 3.02a1.1121 1.1121 0 0 0 1.97.47 1.1469 1.1469 0 0 0 .19-1 17.7933 17.7933 0 0 1 -.44-2.29 16.8563 16.8563 0 0 1 -.12-2.02 2.2555 2.2555 0 0 1 2.25-2.26h.53a11.1456 11.1456 0 0 1 .84 4.25z" fill="#a5fa9b"/><path d="m16 13.42v3.16a2.2681 2.2681 0 0 1 -1.64 2.17 13.383 13.383 0 0 1 -3.61.5c-.32 0-.64-.01-.96-.04a3.0725 3.0725 0 0 1 -.04-1.21c.05-.33.11-.61.17-.88a3.1641 3.1641 0 0 1 3.08-2.37 1.7584 1.7584 0 0 0 1.75-1.75v-.9a1.2144 1.2144 0 0 1 .15-.6 2.2382 2.2382 0 0 1 1.1 1.92z" fill="#97e68e"/><path d="m21.6533 2.3413a1.13 1.13 0 0 0 -1.084-.2559l-3.0009 1a.7507.7507 0 0 0 -.293 1.2422l.4209.42a.2475.2475 0 0 1 .0742.1836.2431.2431 0 0 1 -.082.1758c-2.5176 2.24-4.9922 4.523-7.3535 6.7842-2.6944 2.5815-5.3662 5.2471-7.9405 7.9233a1.27 1.27 0 0 0 1.7989 1.7925c2.6806-2.5924 5.3418-5.267 7.9091-7.947 2.2588-2.3584 4.545-4.8291 6.795-7.3438a.2407.2407 0 0 1 .1757-.0815.2317.2317 0 0 1 .1827.0737l.4111.4107a.75.75 0 0 0 1.2422-.293l1-3.0015a1.1276 1.1276 0 0 0 -.2559-1.0833z" fill="#f0e486"/><path d="m14.37 11.26c-.76.81-1.52 1.61-2.27 2.4-1.63 1.7-3.3 3.4-4.99 5.08a2.2908 2.2908 0 0 1 -1.61-2.1c1.59-1.61 3.21-3.19 4.83-4.75.39-.37.78-.75 1.18-1.11a13.4951 13.4951 0 0 1 2.82.46.0758.0758 0 0 1 .04.02z" fill="#d9ce79"/><path d="m19.66 4.75a.2875.2875 0 0 1 .07.18.25.25 0 0 1 -.08.18c-2.52 2.24-4.99 4.52-7.36 6.78-2.69 2.58-5.36 5.25-7.94 7.92a1.2475 1.2475 0 0 0 -.04 1.69 1.1985 1.1985 0 0 0 -.12.11 1.2506 1.2506 0 0 1 -.87.35 1.2977 1.2977 0 0 1 -.9-.37 1.2617 1.2617 0 0 1 -.03-1.78c2.58-2.67 5.25-5.34 7.94-7.92 2.37-2.26 4.84-4.54 7.36-6.78a.25.25 0 0 0 .08-.18.241.241 0 0 0 -.07-.18l-.42-.42a.7473.7473 0 0 1 -.2-.71.7291.7291 0 0 1 .49-.53l3-1a1.1222 1.1222 0 0 1 1.08.25l.03.03-2.15.72a.7113.7113 0 0 0 -.49.53.7423.7423 0 0 0 .19.71z" fill="#d9ce79"/><path d="m12.5791 11.2427a13.313 13.313 0 0 0 -7.1914.0093 2.2622 2.2622 0 0 0 -1.6377 2.168v3.16a2.28 2.28 0 0 0 1.6709 2.1772 13.2469 13.2469 0 0 0 7.1914-.0093 2.2622 2.2622 0 0 0 1.6377-2.1679v-3.16a2.28 2.28 0 0 0 -1.6709-2.1773z" fill="#f2c894"/><path d="m9.84 19.2175q-.42.03-.84.03a13.1525 13.1525 0 0 1 -3.58-.49 2.2862 2.2862 0 0 1 -1.67-2.18v-3.16a2.2682 2.2682 0 0 1 1.64-2.17 13.0019 13.0019 0 0 1 4.43-.46 12.9636 12.9636 0 0 0 -2.68.46 2.2682 2.2682 0 0 0 -1.64 2.17v3.16a2.2862 2.2862 0 0 0 1.67 2.18 12.8706 12.8706 0 0 0 2.67.46z" fill="#d9b385"/><path d="m13 15.25h-2a.25.25 0 0 1 0-.5h2a.25.25 0 0 1 0 .5z" fill="#807a6e"/><path d="m13 16.25h-2a.25.25 0 0 1 0-.5h2a.25.25 0 0 1 0 .5z" fill="#807a6e"/><path d="m11.25 10.96v1.33a1.2873 1.2873 0 0 1 -.62 1.11 1.3087 1.3087 0 0 1 -.68.2 1.38 1.38 0 0 1 -.59-.14.8267.8267 0 0 0 -.72 0 1.3059 1.3059 0 0 1 -1.27-.06 1.2873 1.2873 0 0 1 -.62-1.11v-1.34a12.8353 12.8353 0 0 1 4.5.01z" fill="#f5deb2"/><path d="m6.7483 10.94a13.124 13.124 0 0 1 3.0717-.1525 12.9636 12.9636 0 0 0 -2.68.46 2.2735 2.2735 0 0 0 -.39.1529z" fill="#d9c49d"/></svg>